<svg width="202" height="257" viewBox="0 0 202 257" fill="none" xmlns="http://www.w3.org/2000/svg">
<path fill-rule="evenodd" clip-rule="evenodd" d="M137.179 62.1694C146.96 72.6754 161.317 76.7199 171.209 87.1216C183.412 99.9522 201.155 111.897 201.288 129.58C201.42 147.214 181.783 157.655 171.846 172.216C161.869 186.838 155.672 203.242 142.757 215.352C124.827 232.165 106.248 263.239 82.81 255.704C57.8754 247.689 64.0648 208.314 50.751 185.775C42.4007 171.638 27.4188 163.312 19.6815 148.832C10.1327 130.962 -1.66356 112.446 0.834956 92.3609C3.4835 71.0698 18.3369 53.6418 33.4209 38.3845C49.847 21.7696 68.2833 -4.16324 91.093 1.06551C116.481 6.88526 119.434 43.1083 137.179 62.1694Z" fill="#FFECF2"/>
</svg>
