<svg width="235" height="300" viewBox="0 0 235 300" fill="none" xmlns="http://www.w3.org/2000/svg">
<path fill-rule="evenodd" clip-rule="evenodd" d="M159.742 72.921C171.059 85.0775 187.672 89.7574 199.118 101.793C213.237 116.639 233.768 130.461 233.921 150.922C234.074 171.326 211.352 183.408 199.855 200.256C188.31 217.174 181.14 236.156 166.196 250.169C145.449 269.623 123.952 305.579 96.8314 296.86C67.9796 287.585 75.1412 242.025 59.7359 215.945C50.0738 199.587 32.7383 189.953 23.7854 173.198C12.7366 152.521 -0.912918 131.096 1.97811 107.856C5.04274 83.2197 22.2296 63.0538 39.6832 45.3996C58.6899 26.1744 80.0224 -3.83241 106.416 2.21777C135.792 8.95179 139.209 50.8654 159.742 72.921Z" stroke="#FFD0E0" stroke-width="2"/>
</svg>
