<svg width="182" height="246" viewBox="0 0 182 246" fill="none" xmlns="http://www.w3.org/2000/svg">
<path fill-rule="evenodd" clip-rule="evenodd" d="M37.5128 166.724C32.2278 153.378 20.328 144.384 14.9014 131.095C8.20749 114.703 -3.97018 97.1184 2.344 80.6004C8.64049 64.1287 30.731 61.5522 45.2863 51.6077C59.9019 41.6219 71.6454 28.5988 88.0829 22.0212C110.904 12.8893 139.52 -9.28881 158.607 6.26157C178.912 22.8047 158.813 57.2243 163.008 83.0636C165.639 99.2701 176.562 112.479 178.497 128.782C180.885 148.902 185.131 170.442 175.492 188.239C165.275 207.105 145.096 217.93 125.493 226.649C104.145 236.144 77.5333 253.586 58.1922 240.412C36.665 225.749 47.1016 190.937 37.5128 166.724Z" fill="#FFECF2"/>
</svg>
