<svg width="211" height="284" viewBox="0 0 211 284" fill="none" xmlns="http://www.w3.org/2000/svg">
<path fill-rule="evenodd" clip-rule="evenodd" d="M53.6729 203.744C45.8127 190.295 31.4691 182.927 23.4643 169.569C13.5902 153.091 -2.42346 136.431 1.79575 117.173C6.00314 97.9698 29.5602 90.677 43.7679 76.8977C58.0345 63.0612 68.7011 46.5033 85.4874 36.0054C108.792 21.4308 136.306 -8.51823 159.493 4.52454C184.159 18.4 167.836 59.939 176.503 87.2043C181.94 104.305 195.895 116.459 200.592 133.806C206.388 155.215 214.426 177.792 206.804 199.117C198.723 221.723 178.555 237.603 158.675 251.075C137.026 265.745 110.932 290.133 87.8485 279.728C62.1564 268.147 67.9338 228.144 53.6729 203.744Z" stroke="#FFD0E0" stroke-width="2"/>
</svg>
